<svg data-name="Layer 1" xmlns="http://www.w3.org/2000/svg" viewBox="0 0 221.61 51.18"><path d="M112.81 15.6c0 7-3.73 13.31-11.63 13.31-7.2 0-11.4-5.8-11.4-13.13s4-13.13 11.66-13.13c7.02 0 11.37 5.51 11.37 12.95zm-20.91.07c0 5.87 3.25 11.41 9.39 11.41 6.62 0 9.4-5.39 9.4-11.44s-3.15-11.16-9.32-11.16c-6.59 0-9.47 5.43-9.47 11.19zm14.73 10.47l7.72 5.54-1.32 1.49-8.37-6zm25.26-2.92v5.32h-1.76a29.89 29.89 0 01-.11-3.17c-.76 2.15-2.63 3.61-5.88 3.61-2.64 0-6-1-6-6.6V10.31h1.79v11.63c0 2.66.84 5.25 4.46 5.25 4.1 0 5.63-2.29 5.63-7.51v-9.37h1.83zm18.53 1.86a20.57 20.57 0 00.26 3.46h-1.75a11.58 11.58 0 01-.33-2.81c-.62 1.35-2.23 3.25-6 3.25-4.24 0-6.07-2.74-6.07-5.47 0-4 3.11-5.83 8.59-5.83h3.48v-1.9c0-1.83-.55-4.27-4.72-4.27-3.69 0-4.24 1.93-4.64 3.43h-1.83c.22-2 1.46-5.11 6.51-5.11 4.16 0 6.5 1.76 6.5 5.77zm-1.79-5.84h-3.58c-4.06 0-6.58 1.06-6.58 4.2 0 2.29 1.64 3.86 4.2 3.86 5.23 0 6-3.46 6-7.4zm7.83 9.3V1.67h1.83v26.87zm7.82-26.87h1.85v3.54h-1.83zm0 8.64h1.85v18.23h-1.83zm8.3 18.23V12.02h-3.15v-1.71h3.15V7.72c0-3.06.88-6.41 5-6.41a7.1 7.1 0 011.79.25v1.75a8.81 8.81 0 00-2-.22c-2.16 0-3 1.53-3 4.71v2.51h4v1.71h-4v16.52zm8.7-26.87h1.85v3.54h-1.83zm0 8.64h1.85v18.23h-1.83zm8.22 9.34c0 4.7 2.42 7.62 5.93 7.62a5.16 5.16 0 005.26-3.43h1.86a7 7 0 01-7.2 5.14c-5.55 0-7.71-4.78-7.71-9.41 0-5.21 2.59-9.7 7.93-9.7 5.63 0 7.42 4.85 7.42 8.28v1.5zm11.63-1.61c0-3.61-2-6.45-5.59-6.45-3.77 0-5.48 2.62-5.89 6.45zm20.44-16.37v26.87h-1.75c-.07-.44-.11-2.15-.11-3.06-.91 2.22-3 3.5-6.14 3.5-4.76 0-7.61-3.87-7.61-9.33 0-5.62 3.11-9.78 8.08-9.78 3.66 0 5.12 1.57 5.67 2.74V1.67zm-13.64 17.9c0 5 2.6 7.7 5.74 7.7 4.83 0 6.14-3.32 6.14-8.28 0-4.7-1.13-7.4-5.81-7.4-3.62 0-6.07 2.88-6.07 7.98zM.55 35.21h4.92c2.53 0 4.26 1.25 4.26 3.42s-1.72 3.51-4.39 3.51h-3.7v5.35H.55zm1.09 6.06h3.8c2.22 0 3.15-1.06 3.15-2.6s-1.22-2.58-3.08-2.58H1.64zm17.4 4.56a8.75 8.75 0 00.14 1.66h-.94a5 5 0 01-.18-1.35c-.33.65-1.2 1.56-3.23 1.56-2.28 0-3.27-1.31-3.27-2.63 0-1.93 1.68-2.8 4.63-2.8h1.87v-.9c0-.87-.29-2-2.54-2-2 0-2.28.93-2.5 1.65h-1c.11-1 .78-2.46 3.5-2.46 2.24 0 3.5.84 3.5 2.77zm-1-2.81h-1.91c-2.19 0-3.54.51-3.54 2 0 1.1.88 1.86 2.26 1.86 2.82 0 3.21-1.67 3.21-3.56zm4.26-1.91v-2.39h1v2a3.72 3.72 0 013.43-2.18v1a3.32 3.32 0 00-3.43 3.47v4.56h-1zm4.9-2.39h1.83v-2.73h1v2.73h2.34v.83h-2.35v5.7c0 1 .23 1.54 1.18 1.54a4.52 4.52 0 001-.1v.77a3.92 3.92 0 01-1.22.16 1.73 1.73 0 01-2-2v-6.1H27.2zm7.17 2.21v-2.21h1a15.7 15.7 0 010 1.67 3.24 3.24 0 013.27-1.88 3 3 0 013.29 3.27v5.68h-1v-5.51c0-1.56-.72-2.58-2.44-2.58-2.34 0-3.15 1.74-3.15 3.65v4.47h-1zm11.01 2.28c0 2.27 1.3 3.67 3.19 3.67a2.76 2.76 0 002.83-1.65h1a3.74 3.74 0 01-3.88 2.47c-3 0-4.16-2.29-4.16-4.52 0-2.51 1.4-4.67 4.28-4.67a3.78 3.78 0 014 4v.72zm6.24-.77a2.9 2.9 0 00-3-3.1c-2 0-3 1.26-3.17 3.1zm3.43-1.33v-2.39h1v2a3.72 3.72 0 013.43-2.18v1a3.32 3.32 0 00-3.43 3.47v4.56h-1zm10.91 1.47v.86h-5v-.86zm3.11-7.37h4.92c2.52 0 4.26 1.25 4.26 3.42s-1.72 3.51-4.39 3.51h-3.73v5.35h-1.06zm1.06 6.06h3.8c2.23 0 3.15-1.06 3.15-2.6s-1.22-2.58-3.07-2.58h-3.88zm17.43 4.56a8.75 8.75 0 00.14 1.66h-.95a5.73 5.73 0 01-.17-1.35c-.34.65-1.2 1.56-3.23 1.56-2.29 0-3.27-1.31-3.27-2.63 0-1.93 1.67-2.8 4.63-2.8h1.87v-.9c0-.87-.3-2-2.54-2-2 0-2.29.93-2.5 1.65h-1c.12-1 .79-2.46 3.51-2.46 2.24 0 3.5.84 3.5 2.77zm-1-2.81h-1.93c-2.19 0-3.55.51-3.55 2 0 1.1.89 1.86 2.27 1.86 2.81 0 3.21-1.67 3.21-3.56zm11.5 1.89a3.69 3.69 0 01-3.82 2.79c-2.46 0-4.21-1.63-4.21-4.56 0-2.4 1.43-4.63 4.33-4.63a3.4 3.4 0 013.7 2.81h-1a2.6 2.6 0 00-2.72-2c-2.09 0-3.27 1.58-3.27 3.77s1.1 3.77 3.17 3.77a2.75 2.75 0 002.82-2zm3.27-1.66c.91-.86 3.66-3.35 5-4.53h1.26l-3.9 3.49 4.4 5.28h-1.23l-3.89-4.71-1.64 1.4v3.31h-1V34.56h1zm15.01 2.58a9 9 0 00.13 1.66h-.94a5 5 0 01-.18-1.35c-.33.65-1.2 1.56-3.23 1.56-2.28 0-3.27-1.31-3.27-2.63 0-1.93 1.68-2.8 4.63-2.8h1.87v-.9c0-.87-.29-2-2.54-2-2 0-2.28.93-2.5 1.65h-1c.12-1 .78-2.46 3.5-2.46 2.25 0 3.51.84 3.51 2.77zm-1-2.81h-1.93c-2.18 0-3.54.51-3.54 2 0 1.1.88 1.86 2.26 1.86 2.82 0 3.21-1.67 3.21-3.56zm11.79 3.88c0 2.8-1.4 4.28-4.25 4.28-2.56 0-3.63-1.28-3.86-2.62h1a2.73 2.73 0 002.9 1.79c2.56 0 3.27-1.47 3.27-3.7v-.87c-.54 1.14-1.5 1.75-3.29 1.75a4 4 0 01-4.08-4.38c0-3 1.89-4.6 4.22-4.6 2 0 2.87.84 3.15 1.55 0-.51 0-1.13.05-1.34h.89v2.55zm-7.27-3.83c0 2.09 1.25 3.6 3.14 3.6 2.46 0 3.21-1.46 3.21-3.74s-.79-3.59-3.16-3.59-3.21 1.73-3.21 3.73zm10.7.14c0 2.27 1.3 3.67 3.19 3.67a2.76 2.76 0 002.83-1.65h1a3.74 3.74 0 01-3.88 2.47c-3 0-4.16-2.29-4.16-4.52 0-2.51 1.4-4.67 4.28-4.67a3.78 3.78 0 014 4v.72zm6.24-.77a2.9 2.9 0 00-3-3.1c-2 0-3 1.26-3.17 3.1zm11.03-7.88v12.93h-.95a14.43 14.43 0 01-.06-1.47c-.49 1.07-1.59 1.68-3.3 1.68-2.56 0-4.1-1.86-4.1-4.49s1.68-4.7 4.35-4.7c2 0 2.76.76 3.05 1.32v-5.27zm-7.35 8.62c0 2.4 1.4 3.7 3.1 3.7 2.59 0 3.3-1.6 3.3-4s-.61-3.56-3.13-3.56c-1.95.02-3.27 1.4-3.27 3.86zm16.12 1.02c.41 1.63 1.63 2.59 3.89 2.59 2.52 0 3.49-1.12 3.49-2.45s-.69-2.25-3.72-2.92-4.13-1.49-4.13-3.26c0-1.61 1.32-3.12 4.28-3.12s4.31 1.65 4.49 3.14h-1.11c-.31-1.32-1.28-2.26-3.44-2.26-2 0-3.08.82-3.08 2.19s.91 1.87 3.45 2.44c3.88.86 4.45 2.24 4.45 3.72 0 1.8-1.48 3.36-4.67 3.36-3.44 0-4.7-1.79-5-3.43zm19.12-1.11a4.31 4.31 0 01-4.45 4.61c-2.66 0-4.32-1.94-4.32-4.59a4.28 4.28 0 014.42-4.6 4.22 4.22 0 014.35 4.58zm-7.72 0c0 2.09 1.26 3.77 3.34 3.77s3.33-1.56 3.33-3.77-1.18-3.77-3.36-3.77S168 41 168 43.11zm10.13 4.4V34.56h1v12.93zm11.61-2.56v2.56h-.95a12.16 12.16 0 01-.06-1.52c-.41 1-1.41 1.73-3.17 1.73-1.41 0-3.23-.49-3.23-3.17v-5.81h1v5.6c0 1.28.45 2.52 2.4 2.52 2.21 0 3-1.1 3-3.61v-4.51h1zm1.75-6.21h1.83v-2.73h1v2.73h2.34v.83h-2.34v5.7c0 1 .23 1.54 1.18 1.54a4.47 4.47 0 001-.1v.77a3.88 3.88 0 01-1.22.16 1.73 1.73 0 01-2-2v-6.1h-1.83zm7.17-4.16h1v1.71h-1zm0 4.16h1v8.77h-1zm12.19 4.37a4.31 4.31 0 01-4.45 4.61c-2.66 0-4.31-1.94-4.31-4.59a4.27 4.27 0 014.41-4.6c2.63 0 4.35 1.83 4.35 4.58zm-7.72 0c0 2.09 1.26 3.77 3.35 3.77s3.33-1.56 3.33-3.77-1.19-3.77-3.37-3.77-3.31 1.68-3.31 3.79zm10.16-2.16v-2.21h1a15.7 15.7 0 010 1.67 3.23 3.23 0 013.27-1.88 3 3 0 013.31 3.3v5.68h-1v-5.54c0-1.56-.73-2.58-2.44-2.58-2.34 0-3.15 1.74-3.15 3.65v4.47h-1zM1.26 22.58a15.79 15.79 0 006.87 1.7c2.84 0 4.35-1.18 4.35-3s-1.3-2.68-4.59-3.86C3.35 15.84.38 13.33.38 9.35c0-4.67 3.9-8.24 10.35-8.24a16.77 16.77 0 017 1.38l-1.38 5a13 13 0 00-5.72-1.3c-2.68 0-4 1.22-4 2.64 0 1.75 1.54 2.52 5.07 3.86 4.83 1.78 7.11 4.3 7.11 8.15 0 4.59-3.53 8.48-11 8.48a17.91 17.91 0 01-7.75-1.66zm28.08-.65l-2 7h-6.36l8.36-27.35h8.12l8.48 27.35h-6.66l-2.11-7zm6.94-4.63l-1.7-5.8c-.49-1.62-1-3.65-1.38-5.28h-.07c-.4 1.63-.81 3.7-1.25 5.28l-1.63 5.8zM49.6 1.96a51 51 0 018.36-.57c3.81 0 6.53.74 8.36 2.2a8 8 0 012.92 6.33 8.76 8.76 0 01-2.52 6.49c-2.11 2-5.23 2.88-8.89 2.88a15.83 15.83 0 01-2.11-.12v9.78H49.6zm6.12 12.42a9.62 9.62 0 002.07.16c3.34 0 5.34-1.66 5.34-4.46 0-2.52-1.75-4-4.83-4a10.07 10.07 0 00-2.56.25zm28.56-8.97A5.56 5.56 0 1178.74 0a5.44 5.44 0 015.54 5.41zm-9.73 0a4.19 4.19 0 004.22 4.37 4.32 4.32 0 000-8.64 4.2 4.2 0 00-4.22 4.27zm3.33 2.83h-1.25v-5.4a10.75 10.75 0 012.07-.17 3.34 3.34 0 011.88.4 1.49 1.49 0 01.55 1.18 1.39 1.39 0 01-1.12 1.26v.06a1.61 1.61 0 011 1.32 4 4 0 00.4 1.35h-1.39a4.69 4.69 0 01-.42-1.32c-.1-.59-.43-.85-1.13-.85h-.59zm0-3.06h.6c.69 0 1.25-.23 1.25-.79s-.36-.83-1.15-.83a3.26 3.26 0 00-.7.07z" fill="#898989"/></svg>