<svg id="Layer_1" data-name="Layer 1" xmlns="http://www.w3.org/2000/svg" viewBox="0 0 221.61 51.18"><defs><style>.cls-1{fill:#898989;}</style></defs><title>SAP</title><path class="cls-1" d="M128.68,44.82c0,7-3.73,13.31-11.63,13.31-7.2,0-11.4-5.8-11.4-13.13s4-13.13,11.66-13.13C124.33,31.87,128.68,37.38,128.68,44.82Zm-20.91.07c0,5.87,3.25,11.41,9.39,11.41,6.62,0,9.4-5.39,9.4-11.44s-3.15-11.16-9.32-11.16C110.65,33.7,107.77,39.13,107.77,44.89ZM122.5,55.36l7.72,5.54-1.32,1.49-8.37-6Z" transform="translate(-15.87 -29.22)"/><path class="cls-1" d="M147.76,52.44c0,1.79,0,4.63,0,5.32H146a29.89,29.89,0,0,1-.11-3.17c-.76,2.15-2.63,3.61-5.88,3.61-2.64,0-6-1-6-6.6V39.53h1.79V51.16c0,2.66.84,5.25,4.46,5.25,4.1,0,5.63-2.29,5.63-7.51V39.53h1.83Z" transform="translate(-15.87 -29.22)"/><path class="cls-1" d="M166.29,54.3a20.57,20.57,0,0,0,.26,3.46H164.8a11.58,11.58,0,0,1-.33-2.81c-.62,1.35-2.23,3.25-6,3.25-4.24,0-6.07-2.74-6.07-5.47,0-4,3.11-5.83,8.59-5.83h3.48V45c0-1.83-.55-4.27-4.72-4.27-3.69,0-4.24,1.93-4.64,3.43h-1.83c.22-2,1.46-5.11,6.51-5.11,4.16,0,6.5,1.76,6.5,5.77Zm-1.79-5.84h-3.58c-4.06,0-6.58,1.06-6.58,4.2,0,2.29,1.64,3.86,4.2,3.86,5.23,0,6-3.46,6-7.4Z" transform="translate(-15.87 -29.22)"/><path class="cls-1" d="M172.33,57.76V30.89h1.83V57.76Z" transform="translate(-15.87 -29.22)"/><path class="cls-1" d="M180.15,30.89H182v3.54h-1.83Zm0,8.64H182V57.76h-1.83Z" transform="translate(-15.87 -29.22)"/><path class="cls-1" d="M188.45,57.76V41.24H185.3V39.53h3.15V36.94c0-3.06.88-6.41,5-6.41a7.1,7.1,0,0,1,1.79.25v1.75a8.81,8.81,0,0,0-2-.22c-2.16,0-3,1.53-3,4.71v2.51h4v1.71h-4V57.76Z" transform="translate(-15.87 -29.22)"/><path class="cls-1" d="M197.15,30.89H199v3.54h-1.83Zm0,8.64H199V57.76h-1.83Z" transform="translate(-15.87 -29.22)"/><path class="cls-1" d="M205.37,48.87c0,4.7,2.42,7.62,5.93,7.62a5.16,5.16,0,0,0,5.26-3.43h1.86a7,7,0,0,1-7.2,5.14c-5.55,0-7.71-4.78-7.71-9.41,0-5.21,2.59-9.7,7.93-9.7,5.63,0,7.42,4.85,7.42,8.28,0,.51,0,1,0,1.5ZM217,47.26c0-3.61-2-6.45-5.59-6.45-3.77,0-5.48,2.62-5.89,6.45Z" transform="translate(-15.87 -29.22)"/><path class="cls-1" d="M237.44,30.89V52.51c0,1.75,0,3.43,0,5.25h-1.75c-.07-.44-.11-2.15-.11-3.06-.91,2.22-3,3.5-6.14,3.5-4.76,0-7.61-3.87-7.61-9.33,0-5.62,3.11-9.78,8.08-9.78,3.66,0,5.12,1.57,5.67,2.74V30.89ZM223.8,48.79c0,5,2.6,7.7,5.74,7.7,4.83,0,6.14-3.32,6.14-8.28,0-4.7-1.13-7.4-5.81-7.4C226.25,40.81,223.8,43.69,223.8,48.79Z" transform="translate(-15.87 -29.22)"/><path class="cls-1" d="M16.42,64.43h4.92c2.53,0,4.26,1.25,4.26,3.42s-1.72,3.51-4.39,3.51h-3.7v5.35H16.42Zm1.09,6.06h3.8c2.22,0,3.15-1.06,3.15-2.6s-1.22-2.58-3.08-2.58H17.51Z" transform="translate(-15.87 -29.22)"/><path class="cls-1" d="M34.91,75.05a8.75,8.75,0,0,0,.14,1.66h-.94a5,5,0,0,1-.18-1.35c-.33.65-1.2,1.56-3.23,1.56-2.28,0-3.27-1.31-3.27-2.63,0-1.93,1.68-2.8,4.63-2.8h1.87v-.9c0-.87-.29-2-2.54-2-2,0-2.28.93-2.5,1.65h-1c.11-1,.78-2.46,3.5-2.46,2.24,0,3.5.84,3.5,2.77Zm-1-2.81H32c-2.19,0-3.54.51-3.54,2,0,1.1.88,1.86,2.26,1.86,2.82,0,3.21-1.67,3.21-3.56Z" transform="translate(-15.87 -29.22)"/><path class="cls-1" d="M38.17,70.33c0-1.48,0-2.11,0-2.39h1c0,.28,0,.84,0,2a3.72,3.72,0,0,1,3.43-2.18v1a3.32,3.32,0,0,0-3.43,3.47v4.56h-1Z" transform="translate(-15.87 -29.22)"/><path class="cls-1" d="M43.07,67.94H44.9V65.21h1v2.73h2.34v.83H45.89v5.7c0,1,.23,1.54,1.18,1.54a4.52,4.52,0,0,0,1-.1v.77a3.92,3.92,0,0,1-1.22.16,1.73,1.73,0,0,1-2-2v-6.1H43.07Z" transform="translate(-15.87 -29.22)"/><path class="cls-1" d="M50.24,70.15c0-.77,0-1.51,0-2.21h1a15.7,15.7,0,0,1,0,1.67,3.24,3.24,0,0,1,3.27-1.88A3,3,0,0,1,57.8,71v5.68h-1V71.17c0-1.56-.72-2.58-2.44-2.58-2.34,0-3.15,1.74-3.15,3.65v4.47h-1Z" transform="translate(-15.87 -29.22)"/><path class="cls-1" d="M61.25,72.43c0,2.27,1.3,3.67,3.19,3.67a2.76,2.76,0,0,0,2.83-1.65h1a3.74,3.74,0,0,1-3.88,2.47c-3,0-4.16-2.29-4.16-4.52,0-2.51,1.4-4.67,4.28-4.67a3.78,3.78,0,0,1,4,4c0,.25,0,.5,0,.72Zm6.24-.77a2.9,2.9,0,0,0-3-3.1c-2,0-3,1.26-3.17,3.1Z" transform="translate(-15.87 -29.22)"/><path class="cls-1" d="M70.92,70.33c0-1.48,0-2.11,0-2.39h1c0,.28,0,.84,0,2a3.72,3.72,0,0,1,3.43-2.18v1a3.32,3.32,0,0,0-3.43,3.47v4.56h-1Z" transform="translate(-15.87 -29.22)"/><path class="cls-1" d="M81.83,71.8v.86h-5V71.8Z" transform="translate(-15.87 -29.22)"/><path class="cls-1" d="M84.94,64.43h4.92c2.52,0,4.26,1.25,4.26,3.42s-1.72,3.51-4.39,3.51H86v5.35H84.94ZM86,70.49h3.8c2.23,0,3.15-1.06,3.15-2.6s-1.22-2.58-3.07-2.58H86Z" transform="translate(-15.87 -29.22)"/><path class="cls-1" d="M103.43,75.05a8.75,8.75,0,0,0,.14,1.66h-.95a5.73,5.73,0,0,1-.17-1.35c-.34.65-1.2,1.56-3.23,1.56-2.29,0-3.27-1.31-3.27-2.63,0-1.93,1.67-2.8,4.63-2.8h1.87v-.9c0-.87-.3-2-2.54-2-2,0-2.29.93-2.5,1.65h-1c.12-1,.79-2.46,3.51-2.46,2.24,0,3.5.84,3.5,2.77Zm-1-2.81h-1.93c-2.19,0-3.55.51-3.55,2,0,1.1.89,1.86,2.27,1.86,2.81,0,3.21-1.67,3.21-3.56Z" transform="translate(-15.87 -29.22)"/><path class="cls-1" d="M113.93,74.13a3.69,3.69,0,0,1-3.82,2.79c-2.46,0-4.21-1.63-4.21-4.56,0-2.4,1.43-4.63,4.33-4.63a3.4,3.4,0,0,1,3.7,2.81h-1a2.6,2.6,0,0,0-2.72-2c-2.09,0-3.27,1.58-3.27,3.77s1.1,3.77,3.17,3.77a2.75,2.75,0,0,0,2.82-2Z" transform="translate(-15.87 -29.22)"/><path class="cls-1" d="M117.2,72.47c.91-.86,3.66-3.35,5-4.53h1.26l-3.9,3.49,4.4,5.28h-1.23L118.84,72l-1.64,1.4v3.31h-1V63.78h1Z" transform="translate(-15.87 -29.22)"/><path class="cls-1" d="M132.21,75.05a9,9,0,0,0,.13,1.66h-.94a5,5,0,0,1-.18-1.35c-.33.65-1.2,1.56-3.23,1.56-2.28,0-3.27-1.31-3.27-2.63,0-1.93,1.68-2.8,4.63-2.8h1.87v-.9c0-.87-.29-2-2.54-2-2,0-2.28.93-2.5,1.65h-1c.12-1,.78-2.46,3.5-2.46,2.25,0,3.51.84,3.51,2.77Zm-1-2.81h-1.93c-2.18,0-3.54.51-3.54,2,0,1.1.88,1.86,2.26,1.86,2.82,0,3.21-1.67,3.21-3.56Z" transform="translate(-15.87 -29.22)"/><path class="cls-1" d="M143,76.12c0,2.8-1.4,4.28-4.25,4.28-2.56,0-3.63-1.28-3.86-2.62h1a2.73,2.73,0,0,0,2.9,1.79c2.56,0,3.27-1.47,3.27-3.7V75c-.54,1.14-1.5,1.75-3.29,1.75a4,4,0,0,1-4.08-4.38c0-3,1.89-4.6,4.22-4.6,2,0,2.87.84,3.15,1.55,0-.51,0-1.13.05-1.34H143c0,.32,0,1.7,0,2.55Zm-7.27-3.83c0,2.09,1.25,3.6,3.14,3.6,2.46,0,3.21-1.46,3.21-3.74s-.79-3.59-3.16-3.59S135.71,70.29,135.71,72.29Z" transform="translate(-15.87 -29.22)"/><path class="cls-1" d="M146.43,72.43c0,2.27,1.3,3.67,3.19,3.67a2.76,2.76,0,0,0,2.83-1.65h1a3.74,3.74,0,0,1-3.88,2.47c-3,0-4.16-2.29-4.16-4.52,0-2.51,1.4-4.67,4.28-4.67a3.78,3.78,0,0,1,4,4c0,.25,0,.5,0,.72Zm6.24-.77a2.9,2.9,0,0,0-3-3.1c-2,0-3,1.26-3.17,3.1Z" transform="translate(-15.87 -29.22)"/><path class="cls-1" d="M163.7,63.78V74.19c0,.84,0,1.65,0,2.52h-.95a14.43,14.43,0,0,1-.06-1.47c-.49,1.07-1.59,1.68-3.3,1.68-2.56,0-4.1-1.86-4.1-4.49s1.68-4.7,4.35-4.7c2,0,2.76.76,3.05,1.32V63.78Zm-7.35,8.62c0,2.4,1.4,3.7,3.1,3.7,2.59,0,3.3-1.6,3.3-4s-.61-3.56-3.13-3.56C157.67,68.56,156.35,69.94,156.35,72.4Z" transform="translate(-15.87 -29.22)"/><path class="cls-1" d="M172.47,73.42c.41,1.63,1.63,2.59,3.89,2.59,2.52,0,3.49-1.12,3.49-2.45s-.69-2.25-3.72-2.92S172,69.15,172,67.38c0-1.61,1.32-3.12,4.28-3.12s4.31,1.65,4.49,3.14h-1.11c-.31-1.32-1.28-2.26-3.44-2.26-2,0-3.08.82-3.08,2.19s.91,1.87,3.45,2.44c3.88.86,4.45,2.24,4.45,3.72,0,1.8-1.48,3.36-4.67,3.36-3.44,0-4.7-1.79-5-3.43Z" transform="translate(-15.87 -29.22)"/><path class="cls-1" d="M191.59,72.31a4.31,4.31,0,0,1-4.45,4.61c-2.66,0-4.32-1.94-4.32-4.59a4.28,4.28,0,0,1,4.42-4.6A4.22,4.22,0,0,1,191.59,72.31Zm-7.72,0c0,2.09,1.26,3.77,3.34,3.77s3.33-1.56,3.33-3.77-1.18-3.77-3.36-3.77S183.87,70.22,183.87,72.33Z" transform="translate(-15.87 -29.22)"/><path class="cls-1" d="M194,76.71V63.78h1V76.71Z" transform="translate(-15.87 -29.22)"/><path class="cls-1" d="M205.61,74.15c0,.86,0,2.23,0,2.56h-.95a12.16,12.16,0,0,1-.06-1.52c-.41,1-1.41,1.73-3.17,1.73-1.41,0-3.23-.49-3.23-3.17V67.94h1v5.6c0,1.28.45,2.52,2.4,2.52,2.21,0,3-1.1,3-3.61V67.94h1Z" transform="translate(-15.87 -29.22)"/><path class="cls-1" d="M207.36,67.94h1.83V65.21h1v2.73h2.34v.83h-2.34v5.7c0,1,.23,1.54,1.18,1.54a4.47,4.47,0,0,0,1-.1v.77a3.88,3.88,0,0,1-1.22.16,1.73,1.73,0,0,1-2-2v-6.1h-1.83Z" transform="translate(-15.87 -29.22)"/><path class="cls-1" d="M214.53,63.78h1v1.71h-1Zm0,4.16h1v8.77h-1Z" transform="translate(-15.87 -29.22)"/><path class="cls-1" d="M226.72,72.31a4.31,4.31,0,0,1-4.45,4.61c-2.66,0-4.31-1.94-4.31-4.59a4.27,4.27,0,0,1,4.41-4.6C225,67.73,226.72,69.56,226.72,72.31Zm-7.72,0c0,2.09,1.26,3.77,3.35,3.77s3.33-1.56,3.33-3.77-1.19-3.77-3.37-3.77S219,70.22,219,72.33Z" transform="translate(-15.87 -29.22)"/><path class="cls-1" d="M229.16,70.15c0-.77,0-1.51,0-2.21h1a15.7,15.7,0,0,1,0,1.67,3.23,3.23,0,0,1,3.27-1.88,3,3,0,0,1,3.31,3.3v5.68h-1V71.17c0-1.56-.73-2.58-2.44-2.58-2.34,0-3.15,1.74-3.15,3.65v4.47h-1Z" transform="translate(-15.87 -29.22)"/><path class="cls-1" d="M17.13,51.8A15.79,15.79,0,0,0,24,53.5c2.84,0,4.35-1.18,4.35-3s-1.3-2.68-4.59-3.86c-4.54-1.58-7.51-4.09-7.51-8.07,0-4.67,3.9-8.24,10.35-8.24a16.77,16.77,0,0,1,7,1.38l-1.38,5a13,13,0,0,0-5.72-1.3c-2.68,0-4,1.22-4,2.64,0,1.75,1.54,2.52,5.07,3.86,4.83,1.78,7.11,4.3,7.11,8.15,0,4.59-3.53,8.48-11,8.48a17.91,17.91,0,0,1-7.75-1.66Z" transform="translate(-15.87 -29.22)"/><path class="cls-1" d="M45.21,51.15l-2,7H36.85l8.36-27.35h8.12l8.48,27.35H55.15l-2.11-7Zm6.94-4.63-1.7-5.8c-.49-1.62-1-3.65-1.38-5.28H49c-.4,1.63-.81,3.7-1.25,5.28l-1.63,5.8Z" transform="translate(-15.87 -29.22)"/><path class="cls-1" d="M65.47,31.18a51,51,0,0,1,8.36-.57c3.81,0,6.53.74,8.36,2.2a8,8,0,0,1,2.92,6.33,8.76,8.76,0,0,1-2.52,6.49c-2.11,2-5.23,2.88-8.89,2.88a15.83,15.83,0,0,1-2.11-.12v9.78H65.47ZM71.59,43.6a9.62,9.62,0,0,0,2.07.16C77,43.76,79,42.1,79,39.3c0-2.52-1.75-4-4.83-4a10.07,10.07,0,0,0-2.56.25Z" transform="translate(-15.87 -29.22)"/><path class="cls-1" d="M100.15,34.63a5.56,5.56,0,1,1-5.54-5.41A5.44,5.44,0,0,1,100.15,34.63Zm-9.73,0A4.19,4.19,0,0,0,94.64,39a4.32,4.32,0,0,0,0-8.64A4.2,4.2,0,0,0,90.42,34.63Zm3.33,2.83H92.5v-5.4a10.75,10.75,0,0,1,2.07-.17,3.34,3.34,0,0,1,1.88.4A1.49,1.49,0,0,1,97,33.47a1.39,1.39,0,0,1-1.12,1.26v.06a1.61,1.61,0,0,1,1,1.32,4,4,0,0,0,.4,1.35H95.89a4.69,4.69,0,0,1-.42-1.32c-.1-.59-.43-.85-1.13-.85h-.59Zm0-3.06h.6c.69,0,1.25-.23,1.25-.79s-.36-.83-1.15-.83a3.26,3.26,0,0,0-.7.07Z" transform="translate(-15.87 -29.22)"/></svg>